<svg xmlns="http://www.w3.org/2000/svg" width="1024" height="1024" viewBox="0 0 1024 1024">
<g>
<path d="M 544.00 576.59 C526.62,579.70 509.57,576.84 491.56,567.78 C478.42,561.17 467.56,553.38 454.62,541.28 C448.51,535.57 445.10,534.00 438.77,534.00 C429.28,534.00 395.00,524.56 395.00,521.95 C395.00,521.47 394.05,520.56 392.88,519.94 C391.27,519.08 390.93,519.08 391.48,519.97 C392.68,521.92 381.99,516.09 373.77,510.32 C369.52,507.34 363.58,502.64 360.56,499.88 C353.38,493.32 346.20,484.76 348.65,485.68 C350.28,486.29 350.33,486.17 349.14,484.70 C348.39,483.78 347.39,483.26 346.91,483.55 C345.84,484.22 337.38,472.79 332.47,464.05 L 328.79 457.50 L 329.43 445.50 C330.25,430.35 333.16,408.94 337.12,389.00 C340.15,373.76 341.21,370.32 343.40,368.67 C344.19,368.08 344.17,367.71 343.32,367.36 C342.42,366.99 342.46,365.79 343.49,362.37 C344.23,359.90 344.58,356.66 344.27,355.18 C343.31,350.75 343.68,348.26 345.73,345.31 C346.80,343.76 350.01,335.08 352.88,326.00 C355.74,316.92 361.71,300.27 366.14,289.00 C398.16,207.47 442.87,154.34 489.50,142.38 C509.33,137.29 526.54,139.00 545.64,147.95 C575.67,162.03 603.07,197.26 625.00,250.00 C627.85,256.88 630.82,263.21 631.60,264.08 C632.37,264.95 633.00,266.15 633.00,266.74 C633.00,268.67 639.23,284.45 640.64,286.08 C641.39,286.95 642.00,288.39 642.00,289.28 C642.00,292.98 654.24,333.48 657.03,339.02 C658.01,340.95 659.06,345.45 659.37,349.02 C659.69,352.58 660.85,359.06 661.97,363.41 C663.09,367.76 664.00,372.49 664.00,373.91 C664.00,375.33 664.66,379.67 665.47,383.55 C668.49,398.01 670.25,418.06 669.67,431.50 C668.91,449.52 664.86,469.82 661.49,472.53 C659.72,473.96 657.00,480.72 657.00,483.70 C657.00,486.63 650.16,498.65 646.84,501.55 C644.17,503.89 635.15,507.68 626.81,509.97 L 621.13 511.53 L 613.19 523.54 C608.82,530.14 601.18,540.06 596.22,545.59 C581.36,562.15 562.67,573.24 544.00,576.59 ZM 489.50 379.40 C495.00,384.11 500.41,387.97 501.51,387.98 C503.84,388.00 530.20,364.97 539.89,354.44 C548.94,344.62 551.50,338.77 551.49,328.00 C551.48,318.17 549.52,312.80 543.55,306.19 C538.23,300.29 532.85,298.00 524.38,298.00 C516.34,298.00 508.79,301.08 504.59,306.08 C503.24,307.68 501.73,309.00 501.25,309.00 C500.77,309.00 499.05,307.59 497.44,305.87 C491.00,299.02 479.57,296.25 469.81,299.18 C464.50,300.77 457.49,307.15 454.21,313.38 C451.83,317.90 451.51,319.62 451.50,328.00 C451.50,336.44 451.82,338.15 454.36,343.33 C457.48,349.68 470.99,363.55 489.50,379.40 ZM 516.50 368.83 C509.90,374.63 503.82,379.93 503.00,380.62 C501.74,381.66 500.05,380.63 492.59,374.27 C478.62,362.35 463.08,347.00 460.46,342.53 C456.53,335.82 455.58,329.21 457.47,321.80 C460.40,310.31 468.13,304.00 479.26,304.00 C482.47,304.00 486.35,304.65 487.87,305.44 C490.84,306.97 497.11,313.46 498.95,316.91 C500.65,320.09 502.17,319.41 506.00,313.78 C510.59,307.03 516.23,304.00 524.21,304.00 C533.02,304.00 539.15,307.68 543.34,315.50 C546.45,321.33 546.40,334.76 543.23,340.72 C540.21,346.41 530.96,356.14 516.50,368.83 ZM 471.48 487.61 C472.52,490.10 473.49,491.05 474.73,490.80 C477.20,490.30 476.89,484.13 474.02,476.64 C472.57,472.86 471.74,470.57 470.13,469.17 C467.63,467.00 463.24,467.00 451.71,466.99 L 450.75 466.99 C431.60,466.99 428.32,466.40 421.32,461.72 C414.13,456.92 411.78,451.32 407.05,427.78 C404.87,416.94 402.39,406.73 401.55,405.09 C400.39,402.85 398.50,401.56 393.97,399.91 C387.22,397.45 383.00,393.32 383.00,389.17 C383.01,385.89 385.17,382.27 393.03,372.38 C403.95,358.64 407.84,347.98 409.96,326.00 C410.57,319.67 411.76,310.90 412.60,306.50 C414.43,296.99 421.23,281.98 427.28,274.13 C436.93,261.59 454.14,250.14 471.52,244.69 C507.56,233.39 549.42,243.13 575.98,269.00 C588.37,281.06 595.77,293.58 599.95,309.57 C601.91,317.04 603.31,319.34 605.50,318.66 C607.55,318.02 607.01,312.06 604.08,302.89 C589.72,258.08 538.60,228.09 488.47,235.07 C476.38,236.75 466.55,239.61 456.47,244.39 C445.36,249.65 440.12,253.14 431.87,260.78 C414.70,276.67 406.99,294.73 404.00,326.00 C401.96,347.29 399.15,354.68 387.24,370.17 C377.71,382.56 377.00,383.83 377.00,388.50 C377.00,395.22 382.56,402.03 390.10,404.53 C392.71,405.40 395.39,406.76 396.05,407.56 C396.71,408.35 399.15,418.34 401.48,429.75 C407.22,457.93 410.31,463.53 423.50,469.70 C429.28,472.40 430.18,472.51 447.83,472.83 L 466.17 473.16 L 468.06 477.33 C469.10,479.62 469.97,482.08 469.98,482.78 C469.99,483.49 470.67,485.66 471.48,487.61 ZM 492.50 416.35 C494.15,416.60 500.45,416.70 506.50,416.55 C520.49,416.20 532.72,412.47 544.34,405.00 C576.13,384.55 589.35,344.18 575.53,309.72 C568.08,291.15 551.42,274.20 533.06,266.51 C513.75,258.42 488.32,259.24 469.79,268.54 C457.65,274.63 443.36,287.18 444.68,290.60 C445.63,293.09 448.11,292.10 453.72,286.97 C469.28,272.75 483.65,266.99 503.46,267.01 C517.13,267.03 524.86,268.79 535.35,274.25 C550.31,282.02 560.78,292.69 568.01,307.50 C573.11,317.95 574.97,326.22 574.99,338.59 C575.01,355.42 570.13,369.64 559.48,383.81 C543.40,405.20 513.62,415.61 487.41,409.01 C466.21,403.66 449.32,390.59 439.59,372.00 C432.48,358.40 429.82,341.88 432.39,327.20 C433.29,322.08 434.70,316.26 435.54,314.26 C436.91,310.98 436.90,310.47 435.46,309.06 C434.02,307.64 433.69,307.72 431.94,309.85 C426.29,316.75 424.11,342.08 427.88,357.00 C433.55,379.41 447.72,397.42 467.91,407.87 C475.09,411.59 485.88,415.31 492.50,416.35 ZM 559.69 486.85 C563.65,489.06 564.00,487.60 564.01,468.64 C564.02,435.97 565.25,431.36 578.82,412.95 C594.80,391.28 602.60,374.30 606.48,352.77 C608.39,342.17 608.14,340.00 605.00,340.00 C604.93,340.00 604.85,340.00 604.78,340.00 C604.30,340.00 603.92,339.99 603.61,340.13 C602.52,340.61 602.18,342.78 600.47,352.50 C599.50,358.00 597.67,365.55 596.40,369.27 C592.79,379.90 583.67,396.50 574.83,408.50 C565.26,421.51 560.46,431.08 559.04,440.00 C558.48,443.58 558.01,455.37 558.01,466.20 C558.00,483.66 558.19,486.01 559.69,486.85 ZM 680.26 854.75 C680.00,855.44 679.41,856.00 678.95,856.00 C677.44,856.00 677.07,854.37 677.92,851.41 L 678.76 848.50 L 679.75 851.00 C680.29,852.38 680.52,854.06 680.26,854.75 ZM 306.00 836.50 C306.00,838.40 303.90,838.38 302.21,836.46 C301.12,835.22 301.31,835.00 303.46,835.00 C305.05,835.00 306.00,835.56 306.00,836.50 ZM 515.50 857.00 C514.73,858.24 513.30,858.29 512.57,857.11 C512.27,856.63 512.65,855.70 513.42,855.06 C514.98,853.77 516.58,855.26 515.50,857.00 ZM 658.39 836.43 C658.09,837.22 657.02,837.80 656.03,837.73 C653.65,837.55 654.63,835.00 657.08,835.00 C658.28,835.00 658.74,835.51 658.39,836.43 ZM 505.00 847.00 C505.00,847.55 504.33,848.00 503.50,848.00 C502.67,848.00 502.00,847.55 502.00,847.00 C502.00,846.45 502.67,846.00 503.50,846.00 C504.33,846.00 505.00,846.45 505.00,847.00 ZM 677.00 857.50 C676.32,858.33 675.25,858.99 674.63,858.98 C673.95,858.98 674.03,858.63 674.84,858.12 C675.57,857.66 676.13,856.99 676.09,856.64 C676.04,856.29 676.22,856.00 676.50,856.00 L 677.62 856.00 C677.96,856.00 677.68,856.67 677.00,857.50 Z" fill="rgb(63,96,128)"/>
<path d="M 665.90 385.66 C665.76,384.94 665.62,384.24 665.47,383.55 C664.66,379.67 664.00,375.33 664.00,373.91 C664.00,372.49 663.09,367.76 661.97,363.41 C660.85,359.06 659.69,352.58 659.37,349.02 C659.06,345.45 658.01,340.95 657.03,339.02 C654.24,333.48 642.00,292.98 642.00,289.28 C642.00,288.39 641.39,286.95 640.64,286.08 C639.23,284.45 633.00,268.67 633.00,266.74 C633.00,266.15 632.37,264.95 631.60,264.08 C630.82,263.21 627.85,256.88 625.00,250.00 C603.07,197.26 575.67,162.03 545.64,147.95 C526.54,139.00 509.33,137.29 489.50,142.38 C442.87,154.34 398.16,207.47 366.14,289.00 C361.71,300.27 355.74,316.92 352.88,326.00 C350.01,335.08 346.80,343.76 345.73,345.31 C343.87,347.99 343.39,350.29 344.04,354.01 C343.80,353.18 343.48,352.35 343.07,351.50 C341.54,348.36 338.30,336.45 336.00,325.50 C333.31,312.65 332.26,288.98 333.92,278.29 C338.86,246.52 351.43,223.47 379.30,195.09 C411.15,162.65 469.28,125.64 508.00,113.13 C525.05,107.62 529.60,106.85 548.00,106.32 C563.16,105.88 566.86,106.09 575.64,107.90 C600.11,112.95 621.81,126.32 635.93,145.06 C643.25,154.78 651.55,171.51 655.96,185.43 C660.25,198.98 665.50,226.17 667.56,245.50 C670.61,274.23 669.64,325.77 665.37,361.15 C663.85,373.78 663.85,375.40 665.36,382.88 C665.54,383.81 665.72,384.73 665.90,385.66 ZM 544.00 576.59 C548.94,575.70 553.89,574.27 558.76,572.34 C553.87,574.36 549.11,575.82 545.00,576.50 C542.53,576.91 538.41,578.30 535.85,579.58 C521.32,586.92 495.89,594.88 474.02,598.95 C434.16,606.36 402.16,601.60 376.33,584.41 C342.67,562.02 328.05,527.48 327.91,470.03 C327.89,459.17 328.32,447.63 328.88,444.39 C329.16,442.80 329.64,439.43 330.20,435.28 C329.86,438.91 329.60,442.34 329.43,445.50 L 328.79 457.50 L 332.47 464.05 C337.38,472.79 345.84,484.22 346.91,483.55 C347.39,483.26 348.39,483.78 349.14,484.70 C350.33,486.17 350.28,486.29 348.65,485.68 C346.20,484.76 353.38,493.32 360.56,499.88 C363.58,502.64 369.52,507.34 373.77,510.32 C381.99,516.09 392.68,521.92 391.48,519.97 C390.93,519.08 391.27,519.08 392.88,519.94 C394.05,520.56 395.00,521.47 395.00,521.95 C395.00,524.56 429.28,534.00 438.77,534.00 C445.10,534.00 448.51,535.57 454.62,541.28 C467.56,553.38 478.42,561.17 491.56,567.78 C509.57,576.84 526.62,579.70 544.00,576.59 ZM 490.50 754.50 L 489.93 777.00 L 483.13 777.00 C479.39,777.00 476.03,776.70 475.67,776.33 C475.30,775.97 475.00,760.44 475.00,741.83 L 475.00 708.00 L 492.75 708.02 C512.28,708.05 517.60,708.85 523.34,712.62 C532.37,718.56 534.87,734.54 528.28,744.11 C526.53,746.64 523.73,749.28 522.05,749.98 C520.37,750.67 519.00,751.66 519.00,752.17 C519.00,752.68 522.34,758.21 526.41,764.47 C530.49,770.72 533.57,776.10 533.25,776.42 C532.93,776.74 529.16,777.00 524.88,777.00 C524.22,777.00 523.61,777.01 523.06,777.01 C520.74,777.04 519.27,777.05 518.01,776.55 C515.48,775.54 513.77,772.45 507.87,763.20 L 501.93 753.90 L 496.22 754.20 ZM 249.46 754.75 L 249.50 776.50 L 235.00 777.09 L 235.00 707.92 L 243.15 708.21 L 251.30 708.50 L 259.90 722.19 C264.63,729.71 268.77,736.13 269.09,736.45 C269.42,736.76 273.63,730.49 278.44,722.51 L 287.20 708.00 L 302.74 708.00 L 303.21 711.75 C303.97,717.76 304.12,758.68 303.43,768.25 L 302.79 777.00 L 289.00 777.00 L 289.00 755.00 C289.00,742.90 288.66,733.00 288.25,733.01 C287.84,733.01 286.43,734.92 285.13,737.26 C281.25,744.21 269.95,761.00 269.16,761.00 C268.49,761.00 256.97,743.92 252.47,736.25 C251.43,734.46 250.31,733.00 250.00,733.00 C249.68,733.00 249.44,742.79 249.46,754.75 ZM 635.58 774.11 C620.58,781.13 602.24,778.11 591.30,766.83 C584.57,759.89 582.49,754.26 582.53,743.00 C582.57,732.23 584.38,726.91 590.56,719.37 C595.16,713.75 606.21,708.22 614.52,707.37 C624.13,706.40 635.70,709.53 642.71,715.00 L 644.91 716.72 L 640.16 722.02 L 635.41 727.33 L 630.68 724.55 C626.74,722.24 624.71,721.76 618.52,721.67 C611.78,721.57 610.70,721.83 606.80,724.57 C600.62,728.91 597.81,734.50 597.87,742.36 C597.93,749.75 598.80,752.42 602.61,756.95 C608.12,763.50 619.22,765.90 627.90,762.42 C632.38,760.63 632.72,760.05 632.59,754.50 L 632.50 750.50 L 617.00 749.92 L 617.00 738.00 L 647.00 738.00 L 647.00 752.33 L 647.00 753.10 C647.00,761.74 647.00,765.62 645.18,768.21 C643.64,770.40 640.80,771.67 635.58,774.11 ZM 716.15 762.28 L 709.73 777.00 L 702.36 777.00 C698.31,777.00 695.00,776.66 695.00,776.25 C695.01,775.84 698.63,766.95 703.05,756.50 C707.48,746.05 713.86,730.86 717.24,722.75 L 723.37 708.00 L 737.69 708.00 L 744.32 723.25 C747.96,731.64 754.56,746.80 758.97,756.95 C763.39,767.11 767.00,775.77 767.00,776.20 C767.00,776.64 763.62,777.00 759.49,777.00 L 751.98 777.00 L 748.33 769.62 L 744.68 762.25 L 738.20 761.73 C734.64,761.44 728.22,761.45 723.94,761.74 ZM 371.27 769.32 L 368.37 776.50 L 360.69 776.79 C356.46,776.95 353.00,776.71 353.00,776.25 C353.00,775.79 359.44,760.36 367.31,741.96 L 381.62 708.50 L 396.49 708.50 L 398.86 714.50 C400.16,717.80 403.59,725.90 406.49,732.50 C422.28,768.58 425.00,774.95 425.00,775.97 C425.00,776.72 422.48,776.99 417.35,776.79 L 409.70 776.50 L 406.62 769.39 L 403.54 762.28 L 390.15 761.72 C382.78,761.41 376.17,761.38 375.46,761.65 C374.75,761.92 372.87,765.38 371.27,769.32 ZM 800.00 809.08 C800.00,809.84 764.01,810.08 675.98,809.89 C607.77,809.75 551.85,809.52 551.72,809.39 C551.59,809.26 493.21,809.01 421.99,808.84 C226.06,808.37 203.00,808.11 203.00,806.38 C203.00,805.15 207.53,805.01 234.75,805.45 C252.21,805.72 364.60,806.23 484.50,806.56 C604.40,806.90 717.80,807.30 736.50,807.46 C755.20,807.62 777.14,807.81 785.25,807.88 C795.04,807.96 800.00,808.36 800.00,809.08 ZM 800.00 937.12 C800.00,937.93 775.33,938.13 708.25,937.87 C657.79,937.66 524.03,937.15 411.00,936.72 C297.98,936.30 204.91,935.74 204.19,935.48 C203.46,935.22 203.19,934.51 203.57,933.89 C204.08,933.06 222.76,932.93 273.88,933.38 C312.17,933.72 416.62,934.26 506.00,934.59 C652.32,935.11 788.13,935.74 796.75,935.93 C798.54,935.97 800.00,936.50 800.00,937.12 ZM 795.95 726.91 C791.46,729.43 787.61,729.51 783.20,727.16 C778.42,724.61 776.01,720.41 776.01,714.63 C776.00,710.31 776.43,709.33 779.88,705.88 C783.45,702.32 784.21,702.00 789.25,702.00 C793.29,702.00 795.43,702.55 797.39,704.09 C805.48,710.46 804.76,721.96 795.95,726.91 ZM 580.45 560.08 C586.03,555.90 591.33,551.04 596.22,545.59 C601.18,540.06 608.82,530.14 613.19,523.54 L 621.13 511.53 L 626.81 509.97 C635.15,507.68 644.17,503.89 646.84,501.55 C647.37,501.09 647.98,500.41 648.64,499.57 C636.77,517.45 619.74,533.66 597.00,548.94 C592.25,552.13 585.69,556.55 580.45,560.08 ZM 490.00 722.00 L 490.00 741.00 L 499.55 741.00 C510.47,741.00 514.05,739.71 515.97,735.07 C517.53,731.31 516.66,727.57 513.50,724.41 C511.26,722.17 510.36,722.00 500.55,722.00 ZM 514.37 857.93 C512.24,859.60 510.30,860.00 504.37,860.00 L 497.00 860.00 L 497.00 835.00 L 504.94 835.00 C512.02,835.00 513.06,835.24 514.44,837.22 C516.42,840.05 516.43,843.39 514.47,845.03 C513.10,846.16 513.16,846.54 514.97,848.46 C517.34,851.00 517.57,854.13 515.72,856.57 C516.31,855.03 514.85,853.88 513.42,855.06 C512.65,855.70 512.27,856.63 512.57,857.11 C513.02,857.84 513.74,858.10 514.40,857.90 ZM 403.00 684.00 L 403.00 697.00 L 394.25 696.81 C389.44,696.71 382.91,696.46 379.75,696.26 L 374.00 695.90 L 374.00 684.00 ZM 785.39 725.07 C791.98,727.88 800.00,722.30 800.00,714.91 C800.00,707.72 792.37,702.36 785.95,705.02 C777.08,708.70 776.73,721.38 785.39,725.07 ZM 739.60 902.60 C736.96,905.24 735.37,906.00 732.50,906.00 C729.63,906.00 728.04,905.24 725.40,902.60 C720.95,898.15 720.75,893.43 724.83,888.87 C727.21,886.20 728.40,885.68 732.41,885.60 C736.58,885.51 737.52,885.90 740.08,888.77 C744.25,893.44 744.09,898.11 739.60,902.60 ZM 381.82 903.29 C379.20,905.24 370.82,906.54 368.25,905.39 C367.38,905.00 367.00,901.99 367.00,895.42 L 367.00 886.00 L 373.55 886.00 C379.13,886.00 380.44,886.35 382.50,888.41 C387.21,893.12 386.92,899.49 381.82,903.29 ZM 694.34 905.06 C691.49,906.14 684.65,906.32 683.67,905.33 C683.30,904.97 683.00,900.47 683.00,895.33 L 683.00 886.00 L 688.92 886.00 C693.84,886.00 695.37,886.44 697.92,888.59 C700.46,890.73 701.00,891.91 701.00,895.40 C701.00,900.02 698.66,903.42 694.34,905.06 ZM 416.98 900.25 C415.81,904.38 415.01,905.57 413.24,905.82 C412.00,906.00 410.77,905.55 410.50,904.82 C410.23,904.09 408.68,899.53 407.05,894.69 L 404.08 885.88 L 406.66 886.19 C408.77,886.44 409.61,887.49 411.28,892.00 L 413.33 897.50 L 415.25 891.75 C417.62,884.64 420.28,883.92 422.59,889.75 C422.77,890.21 422.95,890.65 423.11,891.06 C424.51,894.62 425.16,896.25 425.70,896.21 C426.21,896.18 426.64,894.62 427.54,891.75 C429.10,886.83 429.72,886.00 431.79,886.00 C433.52,886.00 434.05,886.42 433.64,887.49 C433.33,888.31 431.87,892.83 430.40,897.54 C428.13,904.81 427.43,906.06 425.75,905.80 C424.38,905.59 423.16,903.87 421.81,900.25 C420.74,897.36 419.55,895.00 419.17,895.00 C418.79,895.00 417.80,897.36 416.98,900.25 ZM 305.05 835.00 C311.19,835.00 312.40,835.31 314.55,837.45 C317.85,840.76 317.68,844.47 314.08,848.08 C311.61,850.54 310.35,851.00 306.08,851.00 L 301.00 851.00 L 301.00 855.50 C301.00,858.83 300.61,860.00 299.50,860.00 C298.25,860.00 298.00,857.94 298.00,847.50 L 298.00 835.00 L 305.05 835.00 ZM 435.08 857.08 C431.25,860.91 426.38,861.03 422.08,857.41 C419.51,855.26 419.00,854.10 419.00,850.50 C419.00,846.90 419.51,845.74 422.08,843.59 C426.38,839.97 431.25,840.09 435.08,843.92 C437.24,846.09 438.00,847.79 438.00,850.50 C438.00,853.21 437.24,854.91 435.08,857.08 ZM 303.00 899.76 C303.00,905.14 302.75,906.00 301.17,906.00 C300.16,906.00 299.03,905.70 298.67,905.33 C298.30,904.97 298.00,900.47 298.00,895.33 L 298.00 886.00 L 300.92 886.00 C303.20,886.00 304.33,886.80 306.09,889.65 L 308.35 893.30 L 310.67 890.40 C311.95,888.81 312.99,887.16 313.00,886.75 C313.00,886.34 314.37,886.00 316.04,886.00 L 319.07 886.00 L 318.79 895.75 C318.52,904.74 318.34,905.50 316.50,905.50 C314.78,905.50 314.46,904.73 314.19,900.00 L 313.87 894.50 L 311.15 897.83 L 308.43 901.15 L 305.71 897.34 L 303.00 893.52 ZM 678.08 857.08 C673.86,861.30 667.00,860.89 663.25,856.18 C660.97,853.32 661.71,846.91 664.69,843.80 C670.48,837.76 681.00,842.08 681.00,850.50 C681.00,851.83 680.82,852.92 680.37,853.95 C680.37,853.12 680.14,851.98 679.75,851.00 L 678.76 848.50 L 677.92 851.41 C677.07,854.37 677.44,856.00 678.95,856.00 C678.99,856.00 679.03,856.00 679.08,855.99 C678.78,856.34 678.45,856.70 678.08,857.08 ZM 512.03 900.25 C512.00,905.15 511.73,906.00 510.17,906.00 C509.16,906.00 508.03,905.70 507.67,905.33 C507.30,904.97 507.00,900.47 507.00,895.33 C507.00,886.04 507.01,886.00 509.50,886.00 C511.37,886.00 512.95,887.32 515.75,891.23 L 519.50 896.46 L 519.80 891.23 C520.08,886.43 520.31,886.00 522.55,886.00 C524.99,886.00 525.00,886.06 525.00,896.00 C525.00,907.14 524.08,908.37 519.62,903.25 C518.30,901.74 516.06,899.15 514.64,897.50 L 512.06 894.50 ZM 345.02 901.75 C345.00,904.62 344.57,906.00 343.67,906.00 C341.30,906.00 341.00,904.82 341.00,895.33 C341.00,886.28 341.07,886.00 343.29,886.00 C344.87,886.00 346.78,887.60 349.54,891.25 L 353.50 896.50 L 353.80 891.25 C354.08,886.41 354.30,886.00 356.59,886.00 L 359.07 886.00 L 358.79 895.74 C358.43,907.95 357.12,908.75 350.82,900.61 C346.12,894.54 345.04,894.76 345.02,901.75 ZM 456.50 903.50 C456.50,905.28 455.74,905.53 449.46,905.79 C445.58,905.95 442.09,905.76 441.71,905.37 C441.32,904.98 441.00,900.47 441.00,895.33 L 441.00 886.00 L 448.50 886.00 C455.33,886.00 456.00,886.18 456.00,888.00 C456.00,889.73 455.33,890.00 451.00,890.00 C447.22,890.00 446.00,890.37 446.00,891.50 C446.00,892.49 446.99,893.00 448.92,893.00 C453.14,893.00 455.00,893.95 455.00,896.11 C455.00,897.68 454.25,898.00 450.50,898.00 C447.24,898.00 446.00,898.40 446.00,899.45 C446.00,900.49 447.47,900.98 451.25,901.20 C455.73,901.46 456.50,901.79 456.50,903.50 ZM 334.80 858.80 C333.13,860.47 326.78,860.30 324.44,858.53 C323.37,857.72 322.95,857.04 323.50,857.02 C324.05,856.99 323.85,856.56 323.06,856.06 C321.88,855.31 321.84,854.66 322.79,852.55 C324.14,849.59 327.57,848.00 332.60,848.00 C335.83,848.00 335.99,847.85 334.93,845.87 C333.93,844.01 333.19,843.82 328.90,844.33 C325.19,844.77 324.00,844.58 324.00,843.57 C324.00,842.06 327.03,841.03 331.58,841.01 C336.87,840.99 339.00,844.37 339.00,852.81 C339.00,858.53 338.69,860.00 337.50,860.00 C336.67,860.00 336.00,859.46 336.00,858.80 C336.00,857.87 335.73,857.87 334.80,858.80 ZM 469.80 858.80 C469.14,859.46 467.22,860.00 465.52,860.00 C458.24,860.00 455.01,852.60 460.95,849.53 C462.57,848.69 465.50,848.00 467.45,848.00 C471.25,848.00 471.92,847.01 469.49,844.99 C468.58,844.23 466.62,843.96 464.51,844.30 C460.85,844.90 458.75,843.41 461.12,841.90 C463.70,840.27 469.90,840.90 472.00,843.00 C473.64,844.64 474.00,846.33 474.00,852.50 C474.00,858.50 473.70,860.00 472.50,860.00 C471.67,860.00 471.00,859.46 471.00,858.80 C471.00,857.87 470.73,857.87 469.80,858.80 ZM 597.41 858.10 C592.71,863.29 582.00,858.11 582.00,850.65 C582.00,841.84 591.99,837.63 597.46,844.14 C598.94,845.89 599.97,848.21 599.80,849.39 C599.53,851.26 598.68,851.56 592.22,852.00 L 584.95 852.50 L 586.53 854.75 C588.20,857.13 593.16,857.81 595.95,856.05 C598.27,854.58 599.29,856.02 597.41,858.10 ZM 548.50 903.50 C548.50,905.27 547.74,905.53 541.96,905.79 C538.36,905.95 535.10,905.76 534.71,905.37 C534.32,904.99 534.00,900.47 534.00,895.33 L 534.00 886.00 L 541.50 886.00 C548.33,886.00 549.00,886.18 549.00,888.00 C549.00,889.76 548.33,890.00 543.50,890.00 C539.47,890.00 538.00,890.37 538.00,891.39 C538.00,893.14 540.18,894.00 544.58,894.00 C547.33,894.00 548.00,894.39 548.00,896.00 C548.00,897.73 547.33,898.00 543.00,898.00 C539.30,898.00 538.00,898.38 538.00,899.45 C538.00,900.49 539.47,900.98 543.25,901.20 C547.73,901.46 548.50,901.79 548.50,903.50 ZM 263.00 903.50 C262.06,905.98 259.64,906.84 258.55,905.08 C258.24,904.58 259.70,900.19 261.79,895.33 C265.00,887.88 265.99,886.45 268.11,886.20 C270.38,885.93 270.97,886.70 274.23,894.21 C278.74,904.60 278.90,905.29 276.76,905.76 C275.65,906.01 274.60,905.22 273.85,903.57 C272.85,901.38 272.03,901.00 268.31,901.00 C264.58,901.00 263.81,901.36 263.00,903.50 ZM 538.86 858.38 C529.77,864.75 518.88,851.81 526.45,843.65 C531.46,838.24 540.33,841.17 541.16,848.50 L 541.50 851.50 L 534.86 851.17 C527.59,850.81 526.30,851.56 528.60,854.84 C530.29,857.26 535.77,857.83 537.80,855.80 C538.66,854.94 539.31,854.91 540.08,855.68 C540.86,856.46 540.52,857.22 538.86,858.38 ZM 672.08 903.08 C668.42,906.73 664.19,906.92 660.33,903.61 C657.83,901.46 657.51,900.45 657.17,893.61 L 656.78 886.00 L 659.39 886.00 C661.96,886.00 662.00,886.12 662.00,893.03 C662.00,899.41 662.21,900.14 664.25,900.91 C668.61,902.56 670.00,900.64 670.00,892.96 C670.00,886.20 670.07,886.00 672.50,886.00 C674.93,886.00 675.00,886.19 675.00,893.08 C675.00,899.57 674.76,900.40 672.08,903.08 ZM 380.17 747.21 C379.98,747.65 383.88,748.00 388.82,748.00 L 397.81 748.00 L 393.65 737.51 C391.37,731.74 389.20,727.01 388.83,727.01 C388.46,727.00 386.43,731.37 384.33,736.71 C382.22,742.06 380.35,746.78 380.17,747.21 ZM 722.00 747.56 C722.00,747.80 726.01,748.00 730.90,748.00 L 739.81 748.00 L 737.00 741.25 C735.45,737.54 733.44,732.70 732.53,730.50 C731.11,727.06 730.74,726.75 729.89,728.26 C728.81,730.16 722.00,746.83 722.00,747.56 ZM 626.00 904.00 C623.67,906.33 619.85,906.51 615.25,904.51 C611.78,903.00 611.32,902.08 613.15,900.25 C614.01,899.39 615.02,899.48 617.24,900.62 C620.33,902.22 623.43,901.80 622.79,899.87 C622.58,899.24 620.41,898.00 617.96,897.10 C614.13,895.69 613.46,895.01 613.20,892.35 C612.78,888.10 615.14,886.00 620.32,886.02 C625.32,886.03 627.52,887.21 626.67,889.41 C626.18,890.71 625.21,890.90 621.89,890.37 C618.66,889.85 617.83,890.00 618.18,891.04 C618.42,891.77 619.95,892.80 621.56,893.32 C627.95,895.37 629.91,900.09 626.00,904.00 ZM 569.00 904.00 C566.60,906.40 561.68,906.56 557.63,904.37 C555.04,902.96 554.91,902.66 556.31,901.26 C557.64,899.93 558.33,899.89 560.99,901.00 C563.18,901.90 564.43,901.97 565.17,901.23 C566.69,899.71 565.44,898.26 561.98,897.50 C553.04,895.53 554.16,885.98 563.32,886.02 C568.35,886.03 570.29,887.08 569.43,889.32 C568.92,890.66 567.99,890.86 564.76,890.35 C561.64,889.85 560.83,890.00 561.18,891.04 C561.42,891.77 562.95,892.80 564.56,893.32 C570.95,895.37 572.91,900.09 569.00,904.00 ZM 590.78 904.44 C588.02,906.37 584.53,906.37 580.07,904.43 C576.94,903.08 576.77,902.80 578.21,901.37 C579.57,900.01 580.27,899.97 583.39,901.10 C586.04,902.05 587.29,902.11 588.11,901.29 C589.75,899.65 588.47,898.31 584.54,897.57 C575.13,895.81 576.01,885.98 585.58,886.02 C590.34,886.03 592.50,887.24 591.67,889.41 C591.18,890.69 590.21,890.90 587.03,890.39 C584.27,889.95 583.00,890.11 583.00,890.90 C583.00,891.54 583.79,892.31 584.75,892.60 C591.48,894.69 593.00,895.94 593.00,899.43 C593.00,901.87 592.35,903.34 590.78,904.44 ZM 368.00 853.20 C368.00,859.06 367.75,860.00 366.21,860.00 C364.59,860.00 364.42,858.79 364.36,847.00 C364.30,834.98 364.43,834.00 366.15,834.00 C367.69,834.00 368.00,834.79 368.00,838.70 C368.00,842.36 368.27,843.13 369.20,842.20 C371.41,839.99 376.67,840.77 378.93,843.63 C381.58,847.00 382.03,860.00 379.50,860.00 C378.32,860.00 378.00,858.62 378.00,853.57 C378.00,846.55 376.57,844.00 372.63,844.00 C368.97,844.00 368.00,845.94 368.00,853.20 ZM 699.53 858.95 C698.40,860.77 692.15,860.15 690.00,858.00 C688.36,856.36 688.00,854.67 688.00,848.50 C688.00,842.50 688.30,841.00 689.50,841.00 C690.67,841.00 691.00,842.34 691.00,847.07 C691.00,854.57 692.18,857.00 695.84,857.00 C700.05,857.00 701.00,855.31 701.00,847.80 C701.00,842.70 701.34,841.00 702.38,841.00 C704.06,841.00 705.00,845.34 705.00,853.07 C705.00,859.09 703.90,860.99 701.55,859.04 C700.61,858.26 699.98,858.23 699.53,858.95 ZM 500.00 903.50 C500.00,905.90 499.76,906.00 493.67,906.00 C490.18,906.00 487.03,905.70 486.67,905.33 C486.30,904.97 486.00,900.47 486.00,895.33 C486.00,886.04 486.01,886.00 488.50,886.00 C490.94,886.00 491.00,886.17 491.00,893.50 L 491.00 901.00 L 495.50 901.00 C499.63,901.00 500.00,901.20 500.00,903.50 ZM 644.79 897.75 C644.52,904.92 644.33,905.52 642.25,905.82 C640.08,906.13 640.00,905.87 640.00,898.07 L 640.00 890.00 L 637.00 890.00 C634.67,890.00 634.00,889.56 634.00,888.00 C634.00,886.16 634.67,886.00 642.50,886.00 C650.33,886.00 651.00,886.16 651.00,888.00 C651.00,889.55 650.33,890.00 648.04,890.00 L 645.08 890.00 ZM 478.50 903.50 C478.50,905.26 477.77,905.52 472.50,905.69 C469.20,905.80 465.94,905.65 465.25,905.36 C464.38,904.99 464.00,902.00 464.00,895.42 C464.00,886.04 464.01,886.00 466.50,886.00 C468.94,886.00 469.00,886.17 469.00,893.45 L 469.00 900.89 L 473.75 901.20 C477.73,901.45 478.50,901.82 478.50,903.50 ZM 423.65 855.17 C426.03,857.80 431.48,857.58 433.44,854.78 C436.72,850.10 433.83,844.00 428.33,844.00 C422.76,844.00 419.85,850.96 423.65,855.17 ZM 649.00 855.08 C649.00,858.79 648.63,860.00 647.50,860.00 C646.38,860.00 646.00,858.80 646.00,855.24 C646.00,851.50 645.28,849.40 642.66,845.49 C642.24,844.84 641.83,844.24 641.45,843.68 C637.22,837.36 636.06,835.62 636.44,835.16 C636.59,834.98 636.95,834.99 637.46,835.00 C637.58,835.00 637.71,835.00 637.84,835.00 C639.24,835.00 640.76,836.45 642.50,839.42 C646.84,846.82 647.39,846.89 651.58,840.57 C652.70,838.89 653.75,837.55 654.67,836.61 C654.62,837.16 655.03,837.65 656.03,837.73 C656.58,837.77 657.16,837.61 657.61,837.32 C656.66,838.75 655.17,840.97 653.59,843.33 C649.68,849.14 649.00,850.89 649.00,855.08 ZM 666.65 855.17 C670.72,859.67 678.84,855.11 677.52,849.07 C675.87,841.57 665.00,842.66 665.00,850.33 C665.00,851.99 665.74,854.17 666.65,855.17 ZM 412.73 858.32 C412.19,859.97 406.75,860.35 405.25,858.85 C404.50,858.10 404.00,854.91 404.00,850.91 C404.00,845.88 403.63,844.07 402.50,843.64 C401.67,843.32 401.00,842.60 401.00,842.03 C401.00,841.46 401.67,841.00 402.50,841.00 C407.00,840.67 407.33,841.00 410.00,841.00 C413.00,843.51 411.99,844.00 409.95,844.00 L 406.90 844.00 L 407.20 850.25 C407.49,856.27 407.60,856.51 410.31,856.82 C411.92,857.01 412.95,857.65 412.73,858.32 ZM 576.00 858.57 C576.00,860.54 570.58,860.44 568.57,858.43 C567.47,857.33 567.00,854.94 567.00,850.43 C567.00,845.38 566.68,844.00 565.50,844.00 C564.67,844.00 564.00,843.54 564.00,842.97 C564.00,842.40 564.67,841.68 565.50,841.36 C566.36,841.03 567.00,839.54 567.00,837.89 C567.00,835.99 567.51,835.00 568.50,835.00 C570.00,840.67 570.33,841.00 573.00,841.00 C576.00,843.51 574.99,844.00 572.95,844.00 L 569.90 844.00 L 570.20 850.25 C570.49,856.24 570.61,856.51 573.25,856.82 C574.82,857.00 576.00,857.75 576.00,858.57 ZM 301.00 838.00 L 301.00 848.00 L 305.31 848.00 C311.89,848.00 315.26,844.24 312.37,840.11 C311.20,838.45 309.84,838.00 305.94,838.00 ZM 787.00 719.00 C787.00,720.14 786.33,721.00 785.45,721.00 C784.19,721.00 783.96,719.85 784.20,714.75 L 784.50 708.50 L 788.32 708.19 C790.42,708.01 792.78,708.41 793.57,709.06 C795.26,710.46 795.45,714.15 793.91,715.69 C793.12,716.48 793.13,717.37 793.94,718.89 C794.86,720.60 794.79,721.00 793.57,721.00 C792.75,721.00 791.59,720.10 791.00,719.00 C790.41,717.90 789.27,717.00 788.46,717.00 C787.66,717.00 787.00,717.90 787.00,719.00 ZM 558.73 858.32 C558.19,859.97 552.75,860.35 551.25,858.85 C550.50,858.10 550.00,854.89 550.00,850.80 C550.00,846.93 549.57,844.00 549.00,844.00 C548.45,844.00 548.00,843.33 548.00,842.50 C548.00,841.67 548.45,841.00 549.00,841.00 C549.55,841.00 550.00,839.88 550.00,838.50 C550.00,836.94 550.57,836.00 551.50,836.00 C552.43,836.00 553.00,836.94 553.00,838.50 C553.00,840.61 553.47,841.00 556.00,841.00 C559.00,843.51 557.99,844.00 555.95,844.00 L 552.90 844.00 L 553.20 850.25 C553.49,856.27 553.60,856.51 556.31,856.82 C557.92,857.01 558.95,857.65 558.73,858.32 ZM 356.73 858.32 C356.12,860.17 351.42,860.28 349.63,858.48 C348.46,857.32 348.00,855.03 348.00,850.43 C348.00,846.81 347.56,844.00 347.00,844.00 C346.45,844.00 346.00,843.33 346.00,842.50 C346.00,841.67 346.45,841.00 347.00,841.00 C347.55,841.00 348.00,839.88 348.00,838.50 C348.00,836.94 348.57,836.00 349.50,836.00 C350.43,836.00 351.00,836.94 351.00,838.50 C351.00,840.61 351.47,841.00 354.00,841.00 C357.00,843.51 355.99,844.00 353.95,844.00 L 350.90 844.00 L 351.20 850.25 C351.49,856.27 351.60,856.51 354.31,856.82 C355.92,857.01 356.95,857.65 356.73,858.32 ZM 500.00 849.00 L 500.00 857.00 L 505.07 857.00 C510.92,857.00 514.00,855.68 514.00,853.16 C514.00,850.12 511.79,849.00 505.80,849.00 ZM 730.00 900.71 L 730.06 900.74 C731.65,901.54 732.42,901.93 733.15,901.87 C733.84,901.81 734.49,901.34 735.78,900.44 C740.06,897.45 737.81,890.00 732.62,890.00 C728.80,890.00 726.81,892.20 727.17,896.02 C727.41,898.49 728.20,899.81 730.00,900.71 ZM 714.00 896.00 C714.00,905.03 713.82,906.00 712.17,906.00 C711.16,906.00 710.03,905.70 709.67,905.33 C709.30,904.97 709.00,900.47 709.00,895.33 C709.00,886.04 709.01,886.00 711.50,886.00 L 714.00 886.00 ZM 505.00 847.00 C505.00,846.56 504.58,846.19 503.99,846.05 C506.52,846.00 509.71,845.24 511.14,844.06 C513.06,842.49 513.29,841.79 512.40,840.31 C511.58,838.98 509.81,838.42 505.65,838.20 L 500.00 837.90 L 500.00 841.28 C500.00,843.14 500.30,844.97 500.67,845.33 C501.09,845.76 501.98,845.98 503.08,846.04 C502.46,846.16 502.00,846.55 502.00,847.00 C502.00,847.55 502.67,848.00 503.50,848.00 C504.33,848.00 505.00,847.55 505.00,847.00 ZM 372.00 895.50 C372.00,900.91 372.05,901.00 374.93,901.00 C376.54,901.00 378.56,900.29 379.43,899.43 C382.91,895.95 380.02,890.00 374.85,890.00 C372.06,890.00 372.00,890.12 372.00,895.50 ZM 610.00 855.57 C610.00,858.84 609.61,860.00 608.50,860.00 C607.27,860.00 607.00,858.28 607.00,850.50 C607.00,842.72 607.27,841.00 608.50,841.00 C609.33,841.00 610.00,841.70 610.00,842.56 C610.00,843.97 610.21,843.97 612.22,842.56 C613.44,841.70 615.02,841.00 615.72,841.00 C617.95,841.00 617.10,843.63 614.48,844.83 C611.43,846.22 610.00,849.64 610.00,855.57 ZM 688.00 895.44 C688.00,900.94 688.03,901.00 690.98,901.00 C693.08,901.00 694.45,900.24 695.67,898.38 C697.20,896.04 697.23,895.49 695.91,893.13 C694.88,891.29 693.47,890.41 691.22,890.19 L 688.00 889.87 ZM 332.00 896.00 C332.00,904.31 331.74,906.00 330.47,906.00 C328.53,906.00 328.29,905.14 327.64,896.19 C327.03,887.80 327.46,886.00 330.11,886.00 C331.84,886.00 332.00,886.86 332.00,896.00 ZM 463.25 856.97 L 463.32 857.00 C464.85,857.61 465.59,857.91 466.28,857.82 C466.94,857.74 467.56,857.30 468.78,856.44 C470.00,855.59 471.00,854.01 471.00,852.94 C471.00,851.36 470.30,851.00 467.20,851.00 C461.34,851.00 458.62,855.11 463.25,856.97 ZM 326.36 855.50 C327.06,857.32 333.07,857.53 334.80,855.80 C335.46,855.14 336.00,853.79 336.00,852.80 C336.00,851.33 335.17,851.00 331.47,851.00 C326.79,851.00 325.18,852.42 326.36,855.50 ZM 527.00 848.15 C527.00,848.62 529.47,849.00 532.50,849.00 C538.11,849.00 539.43,847.83 536.80,845.20 C534.34,842.74 527.00,844.96 527.00,848.15 ZM 586.24 846.75 C584.76,848.99 584.77,849.00 590.38,849.00 C594.49,849.00 596.00,848.63 596.00,847.62 C596.00,843.55 588.78,842.91 586.24,846.75 ZM 656.14 486.70 C656.68,485.39 657.00,484.33 657.00,483.70 C657.00,480.72 659.72,473.96 661.49,472.53 C662.01,472.12 662.54,471.29 663.07,470.12 C661.17,475.81 658.86,481.33 656.14,486.70 ZM 787.67 714.33 C788.74,715.41 790.67,715.10 791.87,713.66 C793.27,711.97 792.34,711.00 789.33,711.00 C787.13,711.00 786.20,712.87 787.67,714.33 ZM 266.00 896.19 C266.00,896.64 267.12,897.00 268.48,897.00 C270.78,897.00 270.87,896.82 269.78,894.41 C268.68,892.00 268.51,891.95 267.30,893.60 C266.58,894.58 266.00,895.75 266.00,896.19 ZM 343.15 363.55 C342.46,366.08 342.53,367.04 343.32,367.36 C344.17,367.71 344.19,368.08 343.40,368.67 C341.21,370.32 340.15,373.76 337.12,389.00 C336.95,389.87 336.78,390.74 336.61,391.61 C338.78,379.40 340.99,368.59 341.93,366.50 C342.41,365.45 342.81,364.47 343.15,363.55 ZM 306.00 836.50 C306.00,835.56 305.05,835.00 303.46,835.00 C301.31,835.00 301.12,835.22 302.21,836.46 C303.90,838.38 306.00,838.40 306.00,836.50 ZM 677.00 857.50 C677.68,856.67 677.96,856.00 677.62,856.00 L 676.50 856.00 C676.22,856.00 676.04,856.29 676.09,856.64 C676.13,856.99 675.57,857.66 674.84,858.12 C674.03,858.63 673.95,858.98 674.63,858.98 C675.25,858.99 676.32,858.33 677.00,857.50 ZM 666.78 456.64 C668.09,449.78 669.13,441.53 669.57,433.58 C669.30,440.61 668.62,447.18 667.52,453.00 C667.28,454.22 667.04,455.44 666.78,456.64 ZM 658.50 835.98 C658.55,835.36 658.09,835.02 657.16,835.00 C657.17,835.00 657.19,835.00 657.20,835.00 C658.26,835.00 658.91,835.34 658.65,835.75 C658.62,835.79 658.57,835.87 658.50,835.98 Z" fill="rgb(143,153,181)"/>
<path d="M 665.90 385.66 L 665.90 385.66 C665.72,384.73 665.54,383.80 665.36,382.88 C663.85,375.40 663.85,373.78 665.37,361.15 C668.90,331.92 670.18,291.66 668.79,262.35 C669.45,271.38 669.86,280.41 669.98,289.12 C669.99,290.02 673.95,294.13 678.78,298.26 C723.11,336.17 742.67,371.40 740.61,409.62 C739.96,421.58 738.19,427.72 731.61,440.78 C720.70,462.44 699.13,480.44 666.33,495.25 C660.92,497.69 654.17,500.46 651.33,501.40 C648.24,502.42 645.51,504.09 644.55,505.56 C641.96,509.51 637.66,514.47 632.34,519.79 C638.58,513.28 644.00,506.55 648.64,499.57 C651.24,496.24 654.59,490.46 656.14,486.70 C658.86,481.33 661.17,475.81 663.07,470.12 C664.36,467.29 665.67,462.46 666.78,456.64 C667.04,455.44 667.28,454.22 667.52,453.00 C668.62,447.18 669.30,440.61 669.57,433.58 C669.61,432.89 669.65,432.19 669.67,431.50 C670.22,418.71 668.65,399.92 665.90,385.66 ZM 343.15 363.55 C342.81,364.47 342.41,365.45 341.93,366.50 C340.99,368.59 338.78,379.40 336.61,391.61 C333.71,406.62 331.43,422.25 330.20,435.28 C329.64,439.43 329.16,442.80 328.88,444.39 C328.33,447.59 327.90,458.88 327.91,469.62 L 327.84 456.50 L 323.01 446.50 C308.69,416.84 298.36,382.01 290.83,338.00 C287.77,320.13 287.54,289.92 290.37,277.50 C299.53,237.29 318.21,212.72 351.11,197.61 C359.77,193.62 371.08,190.34 379.45,189.37 C384.43,188.79 386.05,188.07 389.45,184.95 C397.05,177.96 407.45,169.83 418.99,161.65 C403.93,172.57 390.10,184.09 379.30,195.09 C351.43,223.47 338.86,246.52 333.92,278.29 C332.26,288.98 333.31,312.65 336.00,325.50 C338.30,336.45 341.54,348.36 343.07,351.50 C343.48,352.35 343.80,353.18 344.04,354.01 C344.10,354.39 344.18,354.78 344.27,355.18 C344.58,356.66 344.23,359.90 343.49,362.37 C343.36,362.80 343.25,363.19 343.15,363.55 ZM 519.00 109.77 C515.85,110.64 512.33,111.73 508.00,113.13 C495.72,117.09 481.50,123.52 466.78,131.49 C474.06,127.47 480.94,123.98 487.00,121.29 C499.66,115.68 509.44,112.06 519.00,109.77 ZM 327.93 472.54 C328.15,494.28 330.49,512.69 335.23,528.36 C330.43,512.73 328.05,494.53 327.93,473.37 ZM 663.22 216.59 C660.97,204.46 658.32,192.88 655.96,185.43 C658.68,194.01 661.14,204.72 663.22,216.59 Z" fill="rgb(224,151,186)"/>
<path d="M 0.00 512.00 L 0.00 0.00 L 512.00 0.00 L 1024.00 0.00 L 1024.00 512.00 L 1024.00 1024.00 L 512.00 1024.00 L 0.00 1024.00 L 0.00 512.00 ZM 800.00 937.12 C800.00,936.50 798.54,935.97 796.75,935.93 C788.13,935.74 652.32,935.11 506.00,934.59 C416.62,934.26 312.17,933.72 273.88,933.38 C222.76,932.93 204.08,933.06 203.57,933.89 C203.19,934.51 203.46,935.22 204.19,935.48 C204.91,935.74 297.98,936.30 411.00,936.72 C524.03,937.15 657.79,937.66 708.25,937.87 C775.33,938.13 800.00,937.93 800.00,937.12 ZM 263.00 903.50 C263.81,901.36 264.58,901.00 268.31,901.00 C272.03,901.00 272.85,901.38 273.85,903.57 C274.60,905.22 275.65,906.01 276.76,905.76 C278.90,905.29 278.74,904.60 274.23,894.21 C270.97,886.70 270.38,885.93 268.11,886.20 C265.99,886.45 265.00,887.88 261.79,895.33 C259.70,900.19 258.24,904.58 258.55,905.08 C259.64,906.84 262.06,905.98 263.00,903.50 ZM 303.00 899.76 L 303.00 893.52 L 305.71 897.34 L 308.43 901.15 L 311.15 897.83 L 313.87 894.50 L 314.19 900.00 C314.46,904.73 314.78,905.50 316.50,905.50 C318.34,905.50 318.52,904.74 318.79,895.75 L 319.07 886.00 L 316.04 886.00 C314.37,886.00 313.00,886.34 313.00,886.75 C312.99,887.16 311.95,888.81 310.67,890.40 L 308.35 893.30 L 306.09 889.65 C304.33,886.80 303.20,886.00 300.92,886.00 L 298.00 886.00 L 298.00 895.33 C298.00,900.47 298.30,904.97 298.67,905.33 C299.03,905.70 300.16,906.00 301.17,906.00 C302.75,906.00 303.00,905.14 303.00,899.76 ZM 332.00 896.00 C332.00,886.86 331.84,886.00 330.11,886.00 C327.46,886.00 327.03,887.80 327.64,896.19 C328.29,905.14 328.53,906.00 330.47,906.00 C331.74,906.00 332.00,904.31 332.00,896.00 ZM 345.02 901.75 C345.04,894.76 346.12,894.54 350.82,900.61 C357.12,908.75 358.43,907.95 358.79,895.74 L 359.07 886.00 L 356.59 886.00 C354.30,886.00 354.08,886.41 353.80,891.25 L 353.50 896.50 L 349.54 891.25 C346.78,887.60 344.87,886.00 343.29,886.00 C341.07,886.00 341.00,886.28 341.00,895.33 C341.00,904.82 341.30,906.00 343.67,906.00 C344.57,906.00 345.00,904.62 345.02,901.75 ZM 381.82 903.29 C386.92,899.49 387.21,893.12 382.50,888.41 C380.44,886.35 379.13,886.00 373.55,886.00 L 367.00 886.00 L 367.00 895.42 C367.00,901.99 367.38,905.00 368.25,905.39 C370.82,906.54 379.20,905.24 381.82,903.29 ZM 416.98 900.25 C417.80,897.36 418.79,895.00 419.17,895.00 C419.55,895.00 420.74,897.36 421.81,900.25 C423.16,903.87 424.38,905.59 425.75,905.80 C427.43,906.06 428.13,904.81 430.40,897.54 C431.87,892.83 433.33,888.31 433.64,887.49 C434.05,886.42 433.52,886.00 431.79,886.00 C429.72,886.00 429.10,886.83 427.54,891.75 C425.58,897.94 425.89,898.07 422.59,889.75 C420.28,883.92 417.62,884.64 415.25,891.75 L 413.33 897.50 L 411.28 892.00 C409.61,887.49 408.77,886.44 406.66,886.19 L 404.08 885.88 L 407.05 894.69 C408.68,899.53 410.23,904.09 410.50,904.82 C410.77,905.55 412.00,906.00 413.24,905.82 C415.01,905.57 415.81,904.38 416.98,900.25 ZM 456.50 903.50 C456.50,901.79 455.73,901.46 451.25,901.20 C447.47,900.98 446.00,900.49 446.00,899.45 C446.00,898.40 447.24,898.00 450.50,898.00 C454.25,898.00 455.00,897.68 455.00,896.11 C455.00,893.95 453.14,893.00 448.92,893.00 C446.99,893.00 446.00,892.49 446.00,891.50 C446.00,890.37 447.22,890.00 451.00,890.00 C455.33,890.00 456.00,889.73 456.00,888.00 C456.00,886.18 455.33,886.00 448.50,886.00 L 441.00 886.00 L 441.00 895.33 C441.00,900.47 441.32,904.98 441.71,905.37 C442.09,905.76 445.58,905.95 449.46,905.79 C455.74,905.53 456.50,905.28 456.50,903.50 ZM 478.50 903.50 C478.50,901.82 477.73,901.45 473.75,901.20 L 469.00 900.89 L 469.00 893.45 C469.00,886.17 468.94,886.00 466.50,886.00 C464.01,886.00 464.00,886.04 464.00,895.42 C464.00,902.00 464.38,904.99 465.25,905.36 C465.94,905.65 469.20,905.80 472.50,905.69 C477.77,905.52 478.50,905.26 478.50,903.50 ZM 500.00 903.50 C500.00,901.20 499.63,901.00 495.50,901.00 L 491.00 901.00 L 491.00 893.50 C491.00,886.17 490.94,886.00 488.50,886.00 C486.01,886.00 486.00,886.04 486.00,895.33 C486.00,900.47 486.30,904.97 486.67,905.33 C487.03,905.70 490.18,906.00 493.67,906.00 C499.76,906.00 500.00,905.90 500.00,903.50 ZM 512.03 900.25 L 512.06 894.50 L 514.64 897.50 C516.06,899.15 518.30,901.74 519.62,903.25 C524.08,908.37 525.00,907.14 525.00,896.00 C525.00,886.06 524.99,886.00 522.55,886.00 C520.31,886.00 520.08,886.43 519.80,891.23 L 519.50 896.46 L 515.75 891.23 C512.95,887.32 511.37,886.00 509.50,886.00 C507.01,886.00 507.00,886.04 507.00,895.33 C507.00,900.47 507.30,904.97 507.67,905.33 C508.03,905.70 509.16,906.00 510.17,906.00 C511.73,906.00 512.00,905.15 512.03,900.25 ZM 548.50 903.50 C548.50,901.79 547.73,901.46 543.25,901.20 C539.47,900.98 538.00,900.49 538.00,899.45 C538.00,898.38 539.30,898.00 543.00,898.00 C547.33,898.00 548.00,897.73 548.00,896.00 C548.00,894.39 547.33,894.00 544.58,894.00 C540.18,894.00 538.00,893.14 538.00,891.39 C538.00,890.37 539.47,890.00 543.50,890.00 C548.33,890.00 549.00,889.76 549.00,888.00 C549.00,886.18 548.33,886.00 541.50,886.00 L 534.00 886.00 L 534.00 895.33 C534.00,900.47 534.32,904.99 534.71,905.37 C535.10,905.76 538.36,905.95 541.96,905.79 C547.74,905.53 548.50,905.27 548.50,903.50 ZM 569.00 904.00 C572.91,900.09 570.95,895.37 564.56,893.32 C562.95,892.80 561.42,891.77 561.18,891.04 C560.83,890.00 561.64,889.85 564.76,890.35 C567.99,890.86 568.92,890.66 569.43,889.32 C570.29,887.08 568.35,886.03 563.32,886.02 C554.16,885.98 553.04,895.53 561.98,897.50 C565.44,898.26 566.69,899.71 565.17,901.23 C564.43,901.97 563.18,901.90 560.99,901.00 C558.33,899.89 557.64,899.93 556.31,901.26 C554.91,902.66 555.04,902.96 557.63,904.37 C561.68,906.56 566.60,906.40 569.00,904.00 ZM 590.78 904.44 C592.35,903.34 593.00,901.87 593.00,899.43 C593.00,895.94 591.48,894.69 584.75,892.60 C583.79,892.31 583.00,891.54 583.00,890.90 C583.00,890.11 584.27,889.95 587.03,890.39 C590.21,890.90 591.18,890.69 591.67,889.41 C592.50,887.24 590.34,886.03 585.58,886.02 C576.01,885.98 575.13,895.81 584.54,897.57 C588.47,898.31 589.75,899.65 588.11,901.29 C587.29,902.11 586.04,902.05 583.39,901.10 C580.27,899.97 579.57,900.01 578.21,901.37 C576.77,902.80 576.94,903.08 580.07,904.43 C584.53,906.37 588.02,906.37 590.78,904.44 ZM 626.00 904.00 C629.91,900.09 627.95,895.37 621.56,893.32 C619.95,892.80 618.42,891.77 618.18,891.04 C617.83,890.00 618.66,889.85 621.89,890.37 C625.21,890.90 626.18,890.71 626.67,889.41 C627.52,887.21 625.32,886.03 620.32,886.02 C615.14,886.00 612.78,888.10 613.20,892.35 C613.46,895.01 614.13,895.69 617.96,897.10 C620.41,898.00 622.58,899.24 622.79,899.87 C623.43,901.80 620.33,902.22 617.24,900.62 C615.02,899.48 614.01,899.39 613.15,900.25 C611.32,902.08 611.78,903.00 615.25,904.51 C619.85,906.51 623.67,906.33 626.00,904.00 ZM 644.79 897.75 L 645.08 890.00 L 648.04 890.00 C650.33,890.00 651.00,889.55 651.00,888.00 C651.00,886.16 650.33,886.00 642.50,886.00 C634.67,886.00 634.00,886.16 634.00,888.00 C634.00,889.56 634.67,890.00 637.00,890.00 L 640.00 890.00 L 640.00 898.07 C640.00,905.87 640.08,906.13 642.25,905.82 C644.33,905.52 644.52,904.92 644.79,897.75 ZM 672.08 903.08 C674.76,900.40 675.00,899.57 675.00,893.08 C675.00,886.19 674.93,886.00 672.50,886.00 C670.07,886.00 670.00,886.20 670.00,892.96 C670.00,900.64 668.61,902.56 664.25,900.91 C662.21,900.14 662.00,899.41 662.00,893.03 C662.00,886.12 661.96,886.00 659.39,886.00 L 656.78 886.00 L 657.17 893.61 C657.51,900.45 657.83,901.46 660.33,903.61 C664.19,906.92 668.42,906.73 672.08,903.08 ZM 694.34 905.06 C698.66,903.42 701.00,900.02 701.00,895.40 C701.00,891.91 700.46,890.73 697.92,888.59 C695.37,886.44 693.84,886.00 688.92,886.00 L 683.00 886.00 L 683.00 895.33 C683.00,900.47 683.30,904.97 683.67,905.33 C684.65,906.32 691.49,906.14 694.34,905.06 ZM 714.00 896.00 L 714.00 886.00 L 711.50 886.00 C709.01,886.00 709.00,886.04 709.00,895.33 C709.00,900.47 709.30,904.97 709.67,905.33 C710.03,905.70 711.16,906.00 712.17,906.00 C713.82,906.00 714.00,905.03 714.00,896.00 ZM 739.60 902.60 C744.09,898.11 744.25,893.44 740.08,888.77 C737.52,885.90 736.58,885.51 732.41,885.60 C728.40,885.68 727.21,886.20 724.83,888.87 C720.75,893.43 720.95,898.15 725.40,902.60 C728.04,905.24 729.63,906.00 732.50,906.00 C735.37,906.00 736.96,905.24 739.60,902.60 ZM 301.00 855.50 L 301.00 851.00 L 306.08 851.00 C310.35,851.00 311.61,850.54 314.08,848.08 C317.68,844.47 317.85,840.76 314.55,837.45 C312.40,835.31 311.19,835.00 305.05,835.00 L 298.00 835.00 L 298.00 847.50 C298.00,857.94 298.25,860.00 299.50,860.00 C300.61,860.00 301.00,858.83 301.00,855.50 ZM 334.80 858.80 C335.73,857.87 336.00,857.87 336.00,858.80 C336.00,859.46 336.67,860.00 337.50,860.00 C338.69,860.00 339.00,858.53 339.00,852.81 C339.00,844.37 336.87,840.99 331.58,841.01 C327.03,841.03 324.00,842.06 324.00,843.57 C324.00,844.58 325.19,844.77 328.90,844.33 C333.19,843.82 333.93,844.01 334.93,845.87 C335.99,847.85 335.83,848.00 332.60,848.00 C327.57,848.00 324.14,849.59 322.79,852.55 C321.84,854.66 321.88,855.31 323.06,856.06 C323.85,856.56 324.05,856.99 323.50,857.02 C322.95,857.04 323.37,857.72 324.44,858.53 C326.78,860.30 333.13,860.47 334.80,858.80 ZM 356.73 858.32 C356.95,857.65 355.92,857.01 354.31,856.82 C351.60,856.51 351.49,856.27 351.20,850.25 L 350.90 844.00 L 353.95 844.00 C355.99,844.00 357.00,843.51 357.00,842.50 C357.00,841.50 356.00,841.00 354.00,841.00 C351.47,841.00 351.00,840.61 351.00,838.50 C351.00,836.94 350.43,836.00 349.50,836.00 C348.57,836.00 348.00,836.94 348.00,838.50 C348.00,839.88 347.55,841.00 347.00,841.00 C346.45,841.00 346.00,841.67 346.00,842.50 C346.00,843.33 346.45,844.00 347.00,844.00 C347.56,844.00 348.00,846.81 348.00,850.43 C348.00,855.03 348.46,857.32 349.63,858.48 C351.42,860.28 356.12,860.17 356.73,858.32 ZM 368.00 853.20 C368.00,845.94 368.97,844.00 372.63,844.00 C376.57,844.00 378.00,846.55 378.00,853.57 C378.00,858.62 378.32,860.00 379.50,860.00 C382.03,860.00 381.58,847.00 378.93,843.63 C376.67,840.77 371.41,839.99 369.20,842.20 C368.27,843.13 368.00,842.36 368.00,838.70 C368.00,834.79 367.69,834.00 366.15,834.00 C364.43,834.00 364.30,834.98 364.36,847.00 C364.42,858.79 364.59,860.00 366.21,860.00 C367.75,860.00 368.00,859.06 368.00,853.20 ZM 412.73 858.32 C412.95,857.65 411.92,857.01 410.31,856.82 C407.60,856.51 407.49,856.27 407.20,850.25 L 406.90 844.00 L 409.95 844.00 C411.99,844.00 413.00,843.51 413.00,842.50 C413.00,841.50 412.00,841.00 410.00,841.00 C407.33,841.00 407.00,840.67 407.00,838.00 C407.00,836.00 406.50,835.00 405.50,835.00 C404.50,835.00 404.00,836.00 404.00,838.00 C404.00,840.00 403.50,841.00 402.50,841.00 C401.67,841.00 401.00,841.46 401.00,842.03 C401.00,842.60 401.67,843.32 402.50,843.64 C403.63,844.07 404.00,845.88 404.00,850.91 C404.00,854.91 404.50,858.10 405.25,858.85 C406.75,860.35 412.19,859.97 412.73,858.32 ZM 435.08 857.08 C437.24,854.91 438.00,853.21 438.00,850.50 C438.00,847.79 437.24,846.09 435.08,843.92 C431.25,840.09 426.38,839.97 422.08,843.59 C419.51,845.74 419.00,846.90 419.00,850.50 C419.00,854.10 419.51,855.26 422.08,857.41 C426.38,861.03 431.25,860.91 435.08,857.08 ZM 469.80 858.80 C470.73,857.87 471.00,857.87 471.00,858.80 C471.00,859.46 471.67,860.00 472.50,860.00 C473.70,860.00 474.00,858.50 474.00,852.50 C474.00,846.33 473.64,844.64 472.00,843.00 C469.90,840.90 463.70,840.27 461.12,841.90 C458.75,843.41 460.85,844.90 464.51,844.30 C466.62,843.96 468.58,844.23 469.49,844.99 C471.92,847.01 471.25,848.00 467.45,848.00 C465.50,848.00 462.57,848.69 460.95,849.53 C455.01,852.60 458.24,860.00 465.52,860.00 C467.22,860.00 469.14,859.46 469.80,858.80 ZM 514.37 857.93 C517.57,855.41 517.82,851.50 514.97,848.46 C513.16,846.54 513.10,846.16 514.47,845.03 C516.43,843.39 516.42,840.05 514.44,837.22 C513.06,835.24 512.02,835.00 504.94,835.00 L 497.00 835.00 L 497.00 847.50 L 497.00 860.00 L 504.37 860.00 C510.30,860.00 512.24,859.60 514.37,857.93 ZM 538.86 858.38 C540.52,857.22 540.86,856.46 540.08,855.68 C539.31,854.91 538.66,854.94 537.80,855.80 C535.77,857.83 530.29,857.26 528.60,854.84 C526.30,851.56 527.59,850.81 534.86,851.17 L 541.50 851.50 L 541.16 848.50 C540.33,841.17 531.46,838.24 526.45,843.65 C518.88,851.81 529.77,864.75 538.86,858.38 ZM 558.73 858.32 C558.95,857.65 557.92,857.01 556.31,856.82 C553.60,856.51 553.49,856.27 553.20,850.25 L 552.90 844.00 L 555.95 844.00 C557.99,844.00 559.00,843.51 559.00,842.50 C559.00,841.50 558.00,841.00 556.00,841.00 C553.47,841.00 553.00,840.61 553.00,838.50 C553.00,836.94 552.43,836.00 551.50,836.00 C550.57,836.00 550.00,836.94 550.00,838.50 C550.00,839.88 549.55,841.00 549.00,841.00 C548.45,841.00 548.00,841.67 548.00,842.50 C548.00,843.33 548.45,844.00 549.00,844.00 C549.57,844.00 550.00,846.93 550.00,850.80 C550.00,854.89 550.50,858.10 551.25,858.85 C552.75,860.35 558.19,859.97 558.73,858.32 ZM 576.00 858.57 C576.00,857.75 574.82,857.00 573.25,856.82 C570.61,856.51 570.49,856.24 570.20,850.25 L 569.90 844.00 L 572.95 844.00 C574.99,844.00 576.00,843.51 576.00,842.50 C576.00,841.50 575.00,841.00 573.00,841.00 C570.33,841.00 570.00,840.67 570.00,838.00 C570.00,836.00 569.50,835.00 568.50,835.00 C567.51,835.00 567.00,835.99 567.00,837.89 C567.00,839.54 566.36,841.03 565.50,841.36 C564.67,841.68 564.00,842.40 564.00,842.97 C564.00,843.54 564.67,844.00 565.50,844.00 C566.68,844.00 567.00,845.38 567.00,850.43 C567.00,854.94 567.47,857.33 568.57,858.43 C570.58,860.44 576.00,860.54 576.00,858.57 ZM 597.41 858.10 C599.29,856.02 598.27,854.58 595.95,856.05 C593.16,857.81 588.20,857.13 586.53,854.75 L 584.95 852.50 L 592.22 852.00 C598.68,851.56 599.53,851.26 599.80,849.39 C599.97,848.21 598.94,845.89 597.46,844.14 C591.99,837.63 582.00,841.84 582.00,850.65 C582.00,858.11 592.71,863.29 597.41,858.10 ZM 610.00 855.57 C610.00,849.64 611.43,846.22 614.48,844.83 C617.10,843.63 617.95,841.00 615.72,841.00 C615.02,841.00 613.44,841.70 612.22,842.56 C610.21,843.97 610.00,843.97 610.00,842.56 C610.00,841.70 609.33,841.00 608.50,841.00 C607.27,841.00 607.00,842.72 607.00,850.50 C607.00,858.28 607.27,860.00 608.50,860.00 C609.61,860.00 610.00,858.84 610.00,855.57 ZM 649.00 855.08 C649.00,850.89 649.68,849.14 653.59,843.33 C656.11,839.57 658.39,836.16 658.65,835.75 C658.91,835.34 658.26,835.00 657.20,835.00 C655.98,835.00 653.93,837.03 651.58,840.57 C647.39,846.89 646.84,846.82 642.50,839.42 C640.76,836.45 639.24,835.00 637.84,835.00 C635.51,835.00 635.20,834.32 642.66,845.49 C645.28,849.40 646.00,851.50 646.00,855.24 C646.00,858.80 646.38,860.00 647.50,860.00 C648.63,860.00 649.00,858.79 649.00,855.08 ZM 678.08 857.08 C680.24,854.91 681.00,853.21 681.00,850.50 C681.00,842.08 670.48,837.76 664.69,843.80 C661.71,846.91 660.97,853.32 663.25,856.18 C667.00,860.89 673.86,861.30 678.08,857.08 ZM 699.53 858.95 C699.98,858.23 700.61,858.26 701.55,859.04 C703.90,860.99 705.00,859.09 705.00,853.07 C705.00,845.34 704.06,841.00 702.38,841.00 C701.34,841.00 701.00,842.70 701.00,847.80 C701.00,855.31 700.05,857.00 695.84,857.00 C692.18,857.00 691.00,854.57 691.00,847.07 C691.00,842.34 690.67,841.00 689.50,841.00 C688.30,841.00 688.00,842.50 688.00,848.50 C688.00,854.67 688.36,856.36 690.00,858.00 C692.15,860.15 698.40,860.77 699.53,858.95 ZM 800.00 809.08 C800.00,808.36 795.04,807.96 785.25,807.88 C777.14,807.81 755.20,807.62 736.50,807.46 C717.80,807.30 604.40,806.90 484.50,806.56 C364.60,806.23 252.21,805.72 234.75,805.45 C207.53,805.01 203.00,805.15 203.00,806.38 C203.00,808.11 226.06,808.37 421.99,808.84 C493.21,809.01 551.59,809.26 551.72,809.39 C551.85,809.52 607.77,809.75 675.98,809.89 C764.01,810.08 800.00,809.84 800.00,809.08 ZM 635.58 774.11 C647.19,768.68 647.00,769.04 647.00,752.33 L 647.00 738.00 L 632.00 738.00 L 617.00 738.00 L 617.00 743.96 L 617.00 749.92 L 624.75 750.21 L 632.50 750.50 L 632.59 754.50 C632.72,760.05 632.38,760.63 627.90,762.42 C619.22,765.90 608.12,763.50 602.61,756.95 C598.80,752.42 597.93,749.75 597.87,742.36 C597.81,734.50 600.62,728.91 606.80,724.57 C610.70,721.83 611.78,721.57 618.52,721.67 C624.71,721.76 626.74,722.24 630.68,724.55 L 635.41 727.33 L 640.16 722.02 L 644.91 716.72 L 642.71 715.00 C635.70,709.53 624.13,706.40 614.52,707.37 C606.21,708.22 595.16,713.75 590.56,719.37 C584.38,726.91 582.57,732.23 582.53,743.00 C582.49,754.26 584.57,759.89 591.30,766.83 C602.24,778.11 620.58,781.13 635.58,774.11 ZM 249.46 754.75 C249.44,742.79 249.68,733.00 250.00,733.00 C250.31,733.00 251.43,734.46 252.47,736.25 C256.97,743.92 268.49,761.00 269.16,761.00 C269.95,761.00 281.25,744.21 285.13,737.26 C286.43,734.92 287.84,733.01 288.25,733.01 C288.66,733.00 289.00,742.90 289.00,755.00 L 289.00 777.00 L 295.89 777.00 L 302.79 777.00 L 303.43 768.25 C304.12,758.68 303.97,717.76 303.21,711.75 L 302.74 708.00 L 294.97 708.00 L 287.20 708.00 L 278.44 722.51 C273.63,730.49 269.42,736.76 269.09,736.45 C268.77,736.13 264.63,729.71 259.90,722.19 L 251.30 708.50 L 243.15 708.21 L 235.00 707.92 L 235.00 742.50 L 235.00 777.09 L 242.25 776.79 L 249.50 776.50 L 249.46 754.75 ZM 371.27 769.32 C372.87,765.38 374.75,761.92 375.46,761.65 C376.17,761.38 382.78,761.41 390.15,761.72 L 403.54 762.28 L 406.62 769.39 L 409.70 776.50 L 417.35 776.79 C422.48,776.99 425.00,776.72 425.00,775.97 C425.00,774.95 422.28,768.58 406.49,732.50 C403.59,725.90 400.16,717.80 398.86,714.50 L 396.49 708.50 L 389.05 708.50 L 381.62 708.50 L 367.31 741.96 C359.44,760.36 353.00,775.79 353.00,776.25 C353.00,776.71 356.46,776.95 360.69,776.79 L 368.37 776.50 L 371.27 769.32 ZM 490.22 765.75 L 490.50 754.50 L 496.22 754.20 L 501.93 753.90 L 507.87 763.20 C517.44,778.20 515.97,777.00 524.88,777.00 C529.16,777.00 532.93,776.74 533.25,776.42 C533.57,776.10 530.49,770.72 526.41,764.47 C522.34,758.21 519.00,752.68 519.00,752.17 C519.00,751.66 520.37,750.67 522.05,749.98 C523.73,749.28 526.53,746.64 528.28,744.11 C534.87,734.54 532.37,718.56 523.34,712.62 C517.60,708.85 512.28,708.05 492.75,708.02 L 475.00 708.00 L 475.00 741.83 C475.00,760.44 475.30,775.97 475.67,776.33 C476.03,776.70 479.39,777.00 483.13,777.00 L 489.93 777.00 L 490.22 765.75 ZM 712.94 769.64 L 716.15 762.28 L 723.94 761.74 C728.22,761.45 734.64,761.44 738.20,761.73 L 744.68 762.25 L 748.33 769.62 L 751.98 777.00 L 759.49 777.00 C763.62,777.00 767.00,776.64 767.00,776.20 C767.00,775.77 763.39,767.11 758.97,756.95 C754.56,746.80 747.96,731.64 744.32,723.25 L 737.69 708.00 L 730.53 708.00 L 723.37 708.00 L 717.24 722.75 C713.86,730.86 707.48,746.05 703.05,756.50 C698.63,766.95 695.01,775.84 695.00,776.25 C695.00,776.66 698.31,777.00 702.36,777.00 L 709.73 777.00 L 712.94 769.64 ZM 795.95 726.91 C804.76,721.96 805.48,710.46 797.39,704.09 C795.43,702.55 793.29,702.00 789.25,702.00 C784.21,702.00 783.45,702.32 779.88,705.88 C776.43,709.33 776.00,710.31 776.01,714.63 C776.01,720.41 778.42,724.61 783.20,727.16 C787.61,729.51 791.46,729.43 795.95,726.91 ZM 403.00 690.50 L 403.00 684.00 L 388.50 684.00 L 374.00 684.00 L 374.00 689.95 L 374.00 695.90 L 379.75 696.26 C382.91,696.46 389.44,696.71 394.25,696.81 L 403.00 697.00 L 403.00 690.50 ZM 474.02 598.95 C495.89,594.88 521.32,586.92 535.85,579.58 C538.41,578.30 542.53,576.91 545.00,576.50 C553.95,575.03 565.98,569.84 575.78,563.23 C581.12,559.62 590.67,553.19 597.00,548.94 C615.85,536.27 637.18,516.82 644.55,505.56 C645.51,504.09 648.24,502.42 651.33,501.40 C654.17,500.46 660.92,497.69 666.33,495.25 C699.13,480.44 720.70,462.44 731.61,440.78 C738.19,427.72 739.96,421.58 740.61,409.62 C742.67,371.40 723.11,336.17 678.78,298.26 C673.95,294.13 669.99,290.02 669.98,289.12 C669.49,252.39 663.78,210.09 655.96,185.43 C651.55,171.51 643.25,154.78 635.93,145.06 C621.81,126.32 600.11,112.95 575.64,107.90 C566.86,106.09 563.16,105.88 548.00,106.32 C525.46,106.96 511.72,110.34 487.00,121.29 C458.43,133.95 411.82,164.37 389.45,184.95 C386.05,188.07 384.43,188.79 379.45,189.37 C371.08,190.34 359.77,193.62 351.11,197.61 C318.21,212.72 299.53,237.29 290.37,277.50 C287.54,289.92 287.77,320.13 290.83,338.00 C298.36,382.01 308.69,416.84 323.01,446.50 L 327.84 456.50 L 327.93 473.37 C328.24,527.68 343.42,562.52 376.33,584.41 C402.16,601.60 434.16,606.36 474.02,598.95 ZM 266.00 896.19 C266.00,895.75 266.58,894.58 267.30,893.60 C268.51,891.95 268.68,892.00 269.78,894.41 C270.87,896.82 270.78,897.00 268.48,897.00 C267.12,897.00 266.00,896.64 266.00,896.19 ZM 372.00 895.50 C372.00,890.12 372.06,890.00 374.85,890.00 C380.02,890.00 382.91,895.95 379.43,899.43 C378.56,900.29 376.54,901.00 374.93,901.00 C372.05,901.00 372.00,900.91 372.00,895.50 ZM 688.00 895.44 L 688.00 889.87 L 691.22 890.19 C693.47,890.41 694.88,891.29 695.91,893.13 C697.23,895.49 697.20,896.04 695.67,898.38 C694.45,900.24 693.08,901.00 690.98,901.00 C688.03,901.00 688.00,900.94 688.00,895.44 ZM 730.00 900.71 C728.20,899.81 727.41,898.49 727.17,896.02 C726.81,892.20 728.80,890.00 732.62,890.00 C737.81,890.00 740.06,897.45 735.78,900.44 C733.12,902.30 733.16,902.30 730.00,900.71 ZM 301.00 843.00 L 301.00 838.00 L 305.94 838.00 C309.84,838.00 311.20,838.45 312.37,840.11 C315.26,844.24 311.89,848.00 305.31,848.00 L 301.00 848.00 L 301.00 843.00 ZM 326.36 855.50 C325.18,852.42 326.79,851.00 331.47,851.00 C335.17,851.00 336.00,851.33 336.00,852.80 C336.00,853.79 335.46,855.14 334.80,855.80 C333.07,857.53 327.06,857.32 326.36,855.50 ZM 423.65 855.17 C419.85,850.96 422.76,844.00 428.33,844.00 C433.83,844.00 436.72,850.10 433.44,854.78 C431.48,857.58 426.03,857.80 423.65,855.17 ZM 463.25 856.97 C458.62,855.11 461.34,851.00 467.20,851.00 C470.30,851.00 471.00,851.36 471.00,852.94 C471.00,854.01 470.00,855.59 468.78,856.44 C466.26,858.20 466.31,858.20 463.25,856.97 ZM 500.00 853.00 L 500.00 849.00 L 505.80 849.00 C511.79,849.00 514.00,850.12 514.00,853.16 C514.00,855.68 510.92,857.00 505.07,857.00 L 500.00 857.00 L 500.00 853.00 ZM 500.67 845.33 C500.30,844.97 500.00,843.14 500.00,841.28 L 500.00 837.90 L 505.65 838.20 C509.81,838.42 511.58,838.98 512.40,840.31 C513.29,841.79 513.06,842.49 511.14,844.06 C508.85,845.94 502.09,846.76 500.67,845.33 ZM 527.00 848.15 C527.00,844.96 534.34,842.74 536.80,845.20 C539.43,847.83 538.11,849.00 532.50,849.00 C529.47,849.00 527.00,848.62 527.00,848.15 ZM 586.24 846.75 C588.78,842.91 596.00,843.55 596.00,847.62 C596.00,848.63 594.49,849.00 590.38,849.00 C584.77,849.00 584.76,848.99 586.24,846.75 ZM 666.65 855.17 C665.74,854.17 665.00,851.99 665.00,850.33 C665.00,842.66 675.87,841.57 677.52,849.07 C678.84,855.11 670.72,859.67 666.65,855.17 ZM 380.17 747.21 C380.35,746.78 382.22,742.06 384.33,736.71 C386.43,731.37 388.46,727.00 388.83,727.01 C389.20,727.01 391.37,731.74 393.65,737.51 L 397.81 748.00 L 388.82 748.00 C383.88,748.00 379.98,747.65 380.17,747.21 ZM 490.00 731.50 L 490.00 722.00 L 500.55 722.00 C510.36,722.00 511.26,722.17 513.50,724.41 C516.66,727.57 517.53,731.31 515.97,735.07 C514.05,739.71 510.47,741.00 499.55,741.00 L 490.00 741.00 L 490.00 731.50 ZM 722.00 747.56 C722.00,746.83 728.81,730.16 729.89,728.26 C730.74,726.75 731.11,727.06 732.53,730.50 C733.44,732.70 735.45,737.54 737.00,741.25 L 739.81 748.00 L 730.90 748.00 C726.01,748.00 722.00,747.80 722.00,747.56 ZM 785.39 725.07 C776.73,721.38 777.08,708.70 785.95,705.02 C792.37,702.36 800.00,707.72 800.00,714.91 C800.00,722.30 791.98,727.88 785.39,725.07 ZM 787.00 719.00 C787.00,717.90 787.66,717.00 788.46,717.00 C789.27,717.00 790.41,717.90 791.00,719.00 C791.59,720.10 792.75,721.00 793.57,721.00 C794.79,721.00 794.86,720.60 793.94,718.89 C793.13,717.37 793.12,716.48 793.91,715.69 C795.45,714.15 795.26,710.46 793.57,709.06 C792.78,708.41 790.42,708.01 788.32,708.19 L 784.50 708.50 L 784.20 714.75 C783.96,719.85 784.19,721.00 785.45,721.00 C786.33,721.00 787.00,720.14 787.00,719.00 ZM 471.48 487.61 C470.67,485.66 469.99,483.49 469.98,482.78 C469.97,482.08 469.10,479.62 468.06,477.33 L 466.17 473.16 L 447.83 472.83 C430.18,472.51 429.28,472.40 423.50,469.70 C410.31,463.53 407.22,457.93 401.48,429.75 C399.15,418.34 396.71,408.35 396.05,407.56 C395.39,406.76 392.71,405.40 390.10,404.53 C382.56,402.03 377.00,395.22 377.00,388.50 C377.00,383.83 377.71,382.56 387.24,370.17 C399.15,354.68 401.96,347.29 404.00,326.00 C406.99,294.73 414.70,276.67 431.87,260.78 C440.12,253.14 445.36,249.65 456.47,244.39 C466.55,239.61 476.38,236.75 488.47,235.07 C538.60,228.09 589.72,258.08 604.08,302.89 C607.01,312.06 607.55,318.02 605.50,318.66 C603.31,319.34 601.91,317.04 599.95,309.57 C595.77,293.58 588.37,281.06 575.98,269.00 C549.42,243.13 507.56,233.39 471.52,244.69 C454.14,250.14 436.93,261.59 427.28,274.13 C421.23,281.98 414.43,296.99 412.60,306.50 C411.76,310.90 410.57,319.67 409.96,326.00 C407.84,347.98 403.95,358.64 393.03,372.38 C385.17,382.27 383.01,385.89 383.00,389.17 C383.00,393.32 387.22,397.45 393.97,399.91 C398.50,401.56 400.39,402.85 401.55,405.09 C402.39,406.73 404.87,416.94 407.05,427.78 C411.78,451.32 414.13,456.92 421.32,461.72 C428.32,466.40 431.60,466.99 450.75,466.99 C470.66,467.00 470.26,466.84 474.02,476.64 C476.89,484.13 477.20,490.30 474.73,490.80 C473.49,491.05 472.52,490.10 471.48,487.61 ZM 559.69 486.85 C558.19,486.01 558.00,483.66 558.01,466.20 C558.01,455.37 558.48,443.58 559.04,440.00 C560.46,431.08 565.26,421.51 574.83,408.50 C583.67,396.50 592.79,379.90 596.40,369.27 C597.67,365.55 599.50,358.00 600.47,352.50 C602.75,339.59 602.60,340.00 605.00,340.00 C608.14,340.00 608.39,342.17 606.48,352.77 C602.60,374.30 594.80,391.28 578.82,412.95 C565.25,431.36 564.02,435.97 564.01,468.64 C564.00,487.60 563.65,489.06 559.69,486.85 ZM 492.50 416.35 C485.88,415.31 475.09,411.59 467.91,407.87 C447.72,397.42 433.55,379.41 427.88,357.00 C424.11,342.08 426.29,316.75 431.94,309.85 C433.69,307.72 434.02,307.64 435.46,309.06 C436.90,310.47 436.91,310.98 435.54,314.26 C434.70,316.26 433.29,322.08 432.39,327.20 C429.82,341.88 432.48,358.40 439.59,372.00 C449.32,390.59 466.21,403.66 487.41,409.01 C513.62,415.61 543.40,405.20 559.48,383.81 C570.13,369.64 575.01,355.42 574.99,338.59 C574.97,326.22 573.11,317.95 568.01,307.50 C560.78,292.69 550.31,282.02 535.35,274.25 C524.86,268.79 517.13,267.03 503.46,267.01 C483.65,266.99 469.28,272.75 453.72,286.97 C448.11,292.10 445.63,293.09 444.68,290.60 C443.36,287.18 457.65,274.63 469.79,268.54 C488.32,259.24 513.75,258.42 533.06,266.51 C551.42,274.20 568.08,291.15 575.53,309.72 C589.35,344.18 576.13,384.55 544.34,405.00 C532.72,412.47 520.49,416.20 506.50,416.55 C500.45,416.70 494.15,416.60 492.50,416.35 ZM 489.50 379.40 C470.99,363.55 457.48,349.68 454.36,343.33 C451.82,338.15 451.50,336.44 451.50,328.00 C451.51,319.62 451.83,317.90 454.21,313.38 C457.49,307.15 464.50,300.77 469.81,299.18 C479.57,296.25 491.00,299.02 497.44,305.87 C499.05,307.59 500.77,309.00 501.25,309.00 C501.73,309.00 503.24,307.68 504.59,306.08 C508.79,301.08 516.34,298.00 524.38,298.00 C532.85,298.00 538.23,300.29 543.55,306.19 C549.52,312.80 551.48,318.17 551.49,328.00 C551.50,338.77 548.94,344.62 539.89,354.44 C530.20,364.97 503.84,388.00 501.51,387.98 C500.41,387.97 495.00,384.11 489.50,379.40 ZM 516.50 368.83 C530.96,356.14 540.21,346.41 543.23,340.72 C546.40,334.76 546.45,321.33 543.34,315.50 C539.15,307.68 533.02,304.00 524.21,304.00 C516.23,304.00 510.59,307.03 506.00,313.78 C502.17,319.41 500.65,320.09 498.95,316.91 C497.11,313.46 490.84,306.97 487.87,305.44 C486.35,304.65 482.47,304.00 479.26,304.00 C468.13,304.00 460.40,310.31 457.47,321.80 C455.58,329.21 456.53,335.82 460.46,342.53 C463.08,347.00 478.62,362.35 492.59,374.27 C500.05,380.63 501.74,381.66 503.00,380.62 C503.82,379.93 509.90,374.63 516.50,368.83 ZM 787.67 714.33 C786.20,712.87 787.13,711.00 789.33,711.00 C792.34,711.00 793.27,711.97 791.87,713.66 C790.67,715.10 788.74,715.41 787.67,714.33 Z" fill="rgb(235,235,234)"/>
</g>
</svg>